<?xml version="1.0" encoding="UTF-8" standalone="no"?>
<!-- Created with Inkscape (http://www.inkscape.org/) -->

<svg
   xmlns:dc="http://purl.org/dc/elements/1.1/"
   xmlns:cc="http://creativecommons.org/ns#"
   xmlns:rdf="http://www.w3.org/1999/02/22-rdf-syntax-ns#"
   xmlns:svg="http://www.w3.org/2000/svg"
   xmlns="http://www.w3.org/2000/svg"
   xmlns:sodipodi="http://sodipodi.sourceforge.net/DTD/sodipodi-0.dtd"
   xmlns:inkscape="http://www.inkscape.org/namespaces/inkscape"
   width="1000"
   height="296.54587"
   id="svg4091"
   version="1.1"
   inkscape:version="0.48.5 r10040"
   sodipodi:docname="New document 5">
  <defs
     id="defs4093">
    <clipPath
       clipPathUnits="userSpaceOnUse"
       id="clipPath3541">
      <path
         inkscape:connector-curvature="0"
         d="m 27.358,886.449 612.284,0 0,-858.898 -612.284,0 0,858.898 z"
         id="path3543" />
    </clipPath>
    <clipPath
       clipPathUnits="userSpaceOnUse"
       id="clipPath3547">
      <path
         inkscape:connector-curvature="0"
         d="m 0.015015,914.01 666.989995,0 0,-914.01 -666.989995,0 0,914.01 z"
         id="path3549" />
    </clipPath>
    <clipPath
       clipPathUnits="userSpaceOnUse"
       id="clipPath3557">
      <path
         inkscape:connector-curvature="0"
         d="m -2.99763,1.15663 4.77212,0 0,22.13097 -4.77212,0 0,-22.13097 z"
         id="path3559" />
    </clipPath>
    <clipPath
       clipPathUnits="userSpaceOnUse"
       id="clipPath3565">
      <path
         inkscape:connector-curvature="0"
         d="m 1.2153,3.0636 -1.0017,0 0,1 1.0017,0 0,-1 z"
         id="path3567" />
    </clipPath>
    <clipPath
       clipPathUnits="userSpaceOnUse"
       id="clipPath3571">
      <path
         inkscape:connector-curvature="0"
         d="m -0.30742,4.0887 1.5211,0 0,-1.0295 -1.5211,0 0,1.0295 z"
         clip-rule="evenodd"
         id="path3573" />
    </clipPath>
    <clipPath
       clipPathUnits="userSpaceOnUse"
       id="clipPath3577">
      <path
         inkscape:connector-curvature="0"
         d="m -2.802,22.62 4.3807,0 0,-20.797 -4.3807,0 0,20.797 z"
         id="path3579" />
    </clipPath>
    <clipPath
       clipPathUnits="userSpaceOnUse"
       id="clipPath3583">
      <path
         inkscape:connector-curvature="0"
         d="m -2.9976,23.288 4.7721,0 0,-22.131 -4.7721,0 0,22.131 z"
         id="path3585" />
    </clipPath>
  </defs>
  <sodipodi:namedview
     id="base"
     pagecolor="#ffffff"
     bordercolor="#666666"
     borderopacity="1.0"
     inkscape:pageopacity="0.0"
     inkscape:pageshadow="2"
     inkscape:zoom="0.57285156"
     inkscape:cx="654.78526"
     inkscape:cy="-55.848955"
     inkscape:document-units="px"
     inkscape:current-layer="layer1"
     showgrid="false"
     fit-margin-left="0.5"
     fit-margin-bottom="0.5"
     fit-margin-top="0.5"
     fit-margin-right="0.5"
     inkscape:window-width="1058"
     inkscape:window-height="1035"
     inkscape:window-x="856"
     inkscape:window-y="-15"
     inkscape:window-maximized="0" />
  <metadata
     id="metadata4096">
    <rdf:RDF>
      <cc:Work
         rdf:about="">
        <dc:format>image/svg+xml</dc:format>
        <dc:type
           rdf:resource="http://purl.org/dc/dcmitype/StillImage" />
        <dc:title></dc:title>
      </cc:Work>
    </rdf:RDF>
  </metadata>
  <g
     inkscape:label="Layer 1"
     inkscape:groupmode="layer"
     id="layer1"
     transform="translate(-167.11428,-200.0465)">
    <g
       transform="matrix(7.1560745,0,0,-7.1560745,-3045.4359,1059.6882)"
       clip-path="url(#clipPath3541)"
       id="g3539">
      <g
         clip-path="url(#clipPath3547)"
         id="g3545">
        <g
           clip-path="url(#clipPath3557)"
           id="g3555"
           transform="matrix(139.768,0,0,41.3,418.988,-47.769)">
          <g
             id="g3561">
            <g
               clip-path="url(#clipPath3565)"
               id="g3563">
              <g
                 clip-path="url(#clipPath3571)"
                 id="g3569">
                <g
                   clip-path="url(#clipPath3577)"
                   id="g3575">
                  <g
                     clip-path="url(#clipPath3583)"
                     id="g3581">
                    <path
                       inkscape:connector-curvature="0"
                       id="path3587"
                       style="fill:#293b8b;fill-opacity:1;fill-rule:nonzero;stroke:none"
                       d="m 0.2147,3.0677 0.99881,0 0,0.99047 -0.99881,0 0,-0.99047 z" />
                    <g
                       transform="scale(0.54359,1.839623)"
                       id="g3589">
                      <path
                         inkscape:connector-curvature="0"
                         id="path3591"
                         style="fill:#e8922c;fill-opacity:1;fill-rule:nonzero;stroke:#154281;stroke-width:0.005;stroke-linecap:butt;stroke-linejoin:miter;stroke-miterlimit:3.86400008;stroke-opacity:1;stroke-dasharray:none"
                         d="m 1.6641,2.1595 0.4378,0 0,-0.43891 -0.4378,0 0,0.43891 z" />
                    </g>
                    <path
                       inkscape:connector-curvature="0"
                       id="path3593"
                       style="fill:#ffffff;fill-opacity:1;fill-rule:nonzero;stroke:none"
                       d="m 1.06,3.8955 c 0.0143,0 0.0225,-0.014 0.0351,-0.0366 C 1.083,3.8723 1.076,3.8853 1.0633,3.8853 1.0495,3.8853 1.0407,3.8761 1.0296,3.8487 l 0,0.0264 C 1.0405,3.8922 1.0479,3.8955 1.06,3.8955" />
                    <path
                       inkscape:connector-curvature="0"
                       id="path3595"
                       style="fill:#154281;fill-opacity:1;fill-rule:nonzero;stroke:none"
                       d="m 1.0116,3.8365 0,-0.0224 C 1.0116,3.735 1.0338,3.7051 1.0338,3.626 1.0338,3.6031 1.0295,3.5861 1.023,3.5802 1.0174,3.5751 1.0092,3.5815 1.0092,3.5619 1.0092,3.5456 1.014,3.5396 1.014,3.5233 1.014,3.4979 1.0094,3.475 1.002,3.4724 0.99664,3.4707 0.99356,3.4712 0.98815,3.4704 0.9877,3.4727 0.9874,3.4742 0.98695,3.4765 0.99701,3.4877 1.0098,3.4905 1.0098,3.5263 c 0,0.027 -0.01024,0.0331 -0.01024,0.06 0,0.0415 0.02584,0.0196 0.02584,0.061 0,0.0613 -0.015,0.0872 -0.015,0.1485 l 0,0.0407 0.0012,0" />
                    <path
                       inkscape:connector-curvature="0"
                       id="path3597"
                       style="fill:#ffffff;fill-opacity:1;fill-rule:nonzero;stroke:none"
                       d="m 1.0627,3.8162 c 0.0091,0 0.0126,-0.0234 0.021,-0.0346 L 1.063,3.747 1.0416,3.7816 C 1.05,3.7928 1.0536,3.8162 1.0627,3.8162" />
                    <path
                       inkscape:connector-curvature="0"
                       id="path3599"
                       style="fill:#154281;fill-opacity:1;fill-rule:evenodd;stroke:none"
                       d="m 0.98154,3.81 0.01142,0 -0.00662,-0.0508 -0.03064,0 C 0.95171,3.7592 0.95074,3.7457 0.94848,3.7348 0.94368,3.7114 0.94097,3.6977 0.93767,3.6717 0.93549,3.6542 0.93429,3.6435 0.93286,3.625 0.93226,3.6166 0.93166,3.611 0.93105,3.6026 0.93068,3.5978 0.93,3.5856 0.92985,3.5904 0.9297,3.5942 0.92925,3.5762 0.92925,3.5802 l 0,0.177 0.02344,0 c 0.0036,0 0.00436,0.0132 0.00721,0.0203 C 0.96726,3.7963 0.9723,3.81 0.98154,3.81" />
                    <path
                       inkscape:connector-curvature="0"
                       id="path3601"
                       style="fill:#ffffff;fill-opacity:1;fill-rule:nonzero;stroke:none"
                       d="m 1.1077,3.7795 0.0103,0 0,-0.5389 -0.0758,0 c 0.0332,0.1121 0.0458,0.2036 0.0571,0.3579 0.0051,0.0694 0.003,0.1121 0.0084,0.181" />
                    <path
                       inkscape:connector-curvature="0"
                       id="path3603"
                       style="fill:#ffffff;fill-opacity:1;fill-rule:nonzero;stroke:none"
                       d="m 1.023,3.5151 c 0.0042,0 0.0059,-0.0104 0.0096,-0.0162 C 1.0386,3.4895 1.0427,3.4887 1.0488,3.4806 1.0421,3.449 1.0345,3.4318 1.023,3.4318 c -0.0021,0 -0.0034,7e-4 -0.0054,0.002 C 1.022,3.4562 1.028,3.4579 1.035,3.4704 1.0289,3.4813 1.0238,3.4778 1.0176,3.4887 1.0189,3.5001 1.0193,3.5151 1.023,3.5151" />
                    <path
                       inkscape:connector-curvature="0"
                       id="path3605"
                       style="fill:#154281;fill-opacity:1;fill-rule:nonzero;stroke:none"
                       d="M 1.0074,3.4541 C 1.0093,3.445 1.0128,3.4422 1.0128,3.4307 c 0,-0.0246 -0.006,-0.0353 -0.006,-0.06 0,-0.0294 0.0042,-0.0447 0.0042,-0.0742 0,-0.0346 -0.0096,-0.0491 -0.01925,-0.06 l -0.0018,0 c 0.00706,0.0127 0.01145,0.0308 0.01145,0.058 0,0.0183 -0.00184,0.0284 -0.00184,0.0468 0,0.0287 0.00604,0.0424 0.00604,0.0711 0,0.0262 -0.00979,0.0247 -0.01565,0.0417 l 0.01745,0" />
                    <path
                       inkscape:connector-curvature="0"
                       id="path3607"
                       style="fill:#ffffff;fill-opacity:1;fill-rule:evenodd;stroke:none"
                       d="m 0.33668,3.7905 c 0,0.0178 -0.00299,0.0344 -0.00762,0.0418 C 0.32534,3.8381 0.32161,3.8402 0.31353,3.8402 l -0.02297,0 0,-0.0049 C 0.2942,3.8332 0.29519,3.8233 0.29519,3.7886 l 0,-0.1017 c 0,-0.0347 -9.9e-4,-0.0442 -0.00463,-0.0467 l 0,-0.0049 0.02325,0 c 0.00944,0 0.01207,0.0012 0.01652,0.0071 0.00599,0.0083 0.00935,0.0261 0.00935,0.0498 0,0.0184 -0.00227,0.0344 -0.00626,0.0439 -0.00236,0.0058 -0.004,0.008 -0.00827,0.0104 0.00763,0.0068 0.01153,0.0219 0.01153,0.044 z M 0.30836,3.8068 c 0.00263,0.0015 0.00363,0.0018 0.00545,0.0018 0.00544,0 0.00853,-0.0083 0.00853,-0.023 0,-0.0172 -0.00381,-0.0259 -0.01162,-0.0259 -6.4e-4,0 -0.00118,0 -0.00236,4e-4 l 0,0.0467 z M 0.3129,3.7284 c 0.00808,0 0.01235,-0.0111 0.01235,-0.0323 0,-0.0178 -0.00373,-0.0279 -0.01035,-0.0279 -0.00527,0 -0.00654,0.0046 -0.00654,0.024 l 0,0.0356 c 0.00227,6e-4 0.00336,6e-4 0.00454,6e-4" />
                    <path
                       inkscape:connector-curvature="0"
                       id="path3609"
                       style="fill:#ffffff;fill-opacity:1;fill-rule:nonzero;stroke:none"
                       d="m 0.40007,3.8052 c 0.00708,0 0.01135,-0.011 0.01135,-0.0295 0,-0.0178 -0.00454,-0.0301 -0.01117,-0.0301 -6.3e-4,0 -0.001,0 -0.002,3e-4 L 0.39762,3.7429 0.41187,3.6587 c 0.00327,-0.02 0.00627,-0.0255 0.01344,-0.0255 0.00254,0 0.00418,3e-4 0.00808,0.0021 l 0,0.0049 C 0.43157,3.6421 0.43076,3.6451 0.42876,3.6562 L 0.41587,3.7281 c 0.00662,0.0101 0.00998,0.027 0.00998,0.0504 0,0.0221 -0.00299,0.0399 -0.00844,0.0507 -0.00463,0.0086 -0.00835,0.011 -0.01807,0.011 l -0.02278,0 0,-0.0049 C 0.38019,3.8332 0.38119,3.8237 0.38119,3.7886 l 0,-0.1017 c 0,-0.0353 -9.1e-4,-0.0442 -0.00463,-0.0467 l 0,-0.0049 c 0.00526,6e-4 0.00735,6e-4 0.01143,6e-4 0.00418,0 0.00645,0 0.01199,-6e-4 l 0,0.0049 C 0.39626,3.6427 0.39526,3.6528 0.39526,3.6869 l 0,0.1177 c 0.00209,6e-4 0.0029,6e-4 0.00481,6e-4" />
                    <path
                       inkscape:connector-curvature="0"
                       id="path3611"
                       style="fill:#ffffff;fill-opacity:1;fill-rule:nonzero;stroke:none"
                       d="m 0.47123,3.7886 0,-0.1017 c 0,-0.0353 -9e-4,-0.0442 -0.00463,-0.0467 l 0,-0.0049 c 0.00545,6e-4 0.00763,6e-4 0.0109,6e-4 0.00218,0 0.00445,0 0.00781,-3e-4 l 0.00463,-3e-4 0,0.0049 C 0.4863,3.6427 0.48531,3.6525 0.48531,3.6869 l 0,0.1017 c 0,0.0344 9.9e-4,0.0446 0.00463,0.0467 l 0,0.0049 -0.00454,-3e-4 -0.0069,-3e-4 c -8.2e-4,0 -0.00318,0 -0.00727,3e-4 -0.001,0 -0.00254,0 -0.00463,3e-4 l 0,-0.0049 C 0.47023,3.8332 0.47123,3.8237 0.47123,3.7886" />
                    <path
                       inkscape:connector-curvature="0"
                       id="path3613"
                       style="fill:#ffffff;fill-opacity:1;fill-rule:nonzero;stroke:none"
                       d="M 0.56276,3.8402 C 0.56185,3.839 0.5614,3.8384 0.56085,3.8384 c -6.3e-4,0 -0.00163,6e-4 -0.00272,0.0018 -0.00409,0.0034 -0.00717,0.005 -0.01044,0.005 -0.01162,0 -0.01961,-0.024 -0.01961,-0.0587 0,-0.0071 4.5e-4,-0.0138 0.00118,-0.0203 C 0.53135,3.7481 0.53461,3.7392 0.54633,3.7198 0.55186,3.7106 0.55386,3.7032 0.55386,3.6915 c 0,-0.0156 -0.00417,-0.0258 -0.01053,-0.0258 -0.00635,0 -0.01126,0.0074 -0.01471,0.0225 L 0.52717,3.6875 0.52862,3.6405 C 0.53507,3.6332 0.53961,3.6301 0.54487,3.6301 c 0.01362,0 0.02234,0.0255 0.02234,0.0645 0,0.0289 -0.00372,0.0461 -0.01389,0.0633 C 0.5495,3.7644 0.54723,3.7684 0.54633,3.7699 0.54306,3.7754 0.5416,3.7816 0.5416,3.7896 c 0,0.0126 0.00318,0.0208 0.00799,0.0208 0.00545,0 0.01008,-0.0076 0.01317,-0.0215 l 0.00163,0 0,0.0513 -0.00163,0" />
                    <path
                       inkscape:connector-curvature="0"
                       id="path3615"
                       style="fill:#ffffff;fill-opacity:1;fill-rule:nonzero;stroke:none"
                       d="m 0.63763,3.8028 c 0.0069,0 0.00944,-0.0034 0.01081,-0.0136 l 0.00145,0 -0.00145,0.051 -0.0434,0 -0.00145,-0.051 0.00145,0 c 0.00136,0.0102 0.0039,0.0136 0.01071,0.0136 l 0.00382,0 0,-0.1159 c 0,-0.0347 -0.001,-0.0445 -0.00473,-0.0467 l 0,-0.0049 c 0.00527,6e-4 0.00736,6e-4 0.01163,6e-4 0.00444,0 0.00653,0 0.01207,-6e-4 l 0,0.0049 C 0.63473,3.6427 0.63364,3.6528 0.63364,3.6869 l 0,0.1159 0.00399,0" />
                    <path
                       inkscape:connector-curvature="0"
                       id="path3617"
                       style="fill:#ffffff;fill-opacity:1;fill-rule:evenodd;stroke:none"
                       d="m 0.68668,3.7382 c 0,-0.0633 0.0138,-0.1081 0.03332,-0.1081 0.01898,0 0.0325,0.0452 0.0325,0.1081 0,0.0351 -0.00444,0.0661 -0.01243,0.0864 -0.00563,0.0144 -0.0118,0.0206 -0.02025,0.0206 -0.01997,0 -0.03314,-0.0424 -0.03314,-0.107 z m 0.05139,-9e-4 c 0,-0.0399 -0.00781,-0.0691 -0.01834,-0.0691 -0.01071,0 -0.0187,0.0295 -0.0187,0.0688 0,0.0403 0.00808,0.0704 0.01861,0.0704 0.01071,0 0.01843,-0.0295 0.01843,-0.0701" />
                    <path
                       inkscape:connector-curvature="0"
                       id="path3619"
                       style="fill:#ffffff;fill-opacity:1;fill-rule:nonzero;stroke:none"
                       d="M 0.82969,3.6891 C 0.82806,3.678 0.82479,3.6731 0.81907,3.6731 l -0.00299,0 c -0.00636,0 -0.0069,0.0018 -0.0069,0.0261 l 0,0.0894 c 0,0.0341 0.00109,0.0446 0.00472,0.0467 l 0,0.0049 -0.00472,-3e-4 c -0.00309,-3e-4 -0.00536,-3e-4 -0.00691,-3e-4 -0.00163,0 -0.00408,0 -0.00717,3e-4 l -0.00463,3e-4 0,-0.0049 C 0.7941,3.8332 0.7951,3.8233 0.7951,3.7886 l 0,-0.1017 c 0,-0.0347 -0.001,-0.0442 -0.00463,-0.0467 l 0,-0.0049 0.03922,0 0.00155,0.0529 -0.00155,9e-4" />
                    <path
                       inkscape:connector-curvature="0"
                       id="path3621"
                       style="fill:#ffffff;fill-opacity:1;fill-rule:nonzero;stroke:none"
                       d="m 0.40944,3.4463 c -4.6e-4,-6e-4 -7.3e-4,-9e-4 -0.00109,-9e-4 -3.7e-4,0 -0.00109,3e-4 -0.00155,9e-4 L 0.40326,3.4493 C 0.4019,3.4506 0.40027,3.4512 0.39845,3.4512 0.38783,3.4512 0.37993,3.4275 0.37993,3.3956 0.37993,3.3765 0.38356,3.3615 0.38964,3.3553 0.38565,3.3523 0.3842,3.3504 0.38193,3.3446 0.37802,3.3347 0.37575,3.3191 0.37575,3.3022 c 0,-0.0381 0.01081,-0.0658 0.0257,-0.0661 0.01825,0 0.03277,0.036 0.03277,0.0808 0,0.0086 -3.6e-4,0.0145 -0.00136,0.0218 0.00154,-6e-4 0.002,-6e-4 0.00327,-6e-4 0.00436,0 0.00644,0.0022 0.00835,0.0086 0.00218,0.0077 0.00354,0.0194 0.00527,0.043 L 0.44784,3.391 C 0.44503,3.3771 0.44167,3.3722 0.43504,3.3722 l -0.01516,0 C 0.41615,3.3722 0.41407,3.3704 0.41216,3.3658 0.40989,3.3606 0.40871,3.3547 0.40617,3.3351 L 0.40789,3.3329 c 0.00155,0.0068 0.00318,0.0089 0.00699,0.0089 0.001,0 0.00227,0 0.00391,-3e-4 0.00163,-0.0074 0.00209,-0.0111 0.00209,-0.0193 0,-0.0286 -0.00781,-0.0507 -0.0178,-0.0507 -0.00808,0 -0.01344,0.0138 -0.01344,0.0353 0,0.0178 0.00427,0.0301 0.01054,0.0301 6.3e-4,0 0.00145,0 0.00254,-3e-4 L 0.40699,3.3655 0.40562,3.3679 C 0.40381,3.3664 0.40299,3.3661 0.40163,3.3661 c -0.00499,0 -0.00808,0.0092 -0.00808,0.0236 0,0.0151 0.00345,0.0259 0.00826,0.0259 0.00381,0 0.00627,-0.0056 0.00763,-0.0166 l 0.00163,0 0,0.0473 -0.00163,0" />
                    <path
                       inkscape:connector-curvature="0"
                       id="path3623"
                       style="fill:#ffffff;fill-opacity:1;fill-rule:nonzero;stroke:none"
                       d="m 0.56227,3.2361 0.00181,0 0.02215,0.1761 c 0.00255,0.0203 0.00355,0.0245 0.00681,0.0292 l 0,0.0049 -0.00263,-3e-4 c -0.00181,0 -0.00381,-3e-4 -0.00599,-3e-4 -0.00191,0 -0.004,0 -0.00763,3e-4 l -0.00481,3e-4 0,-0.0049 C 0.57362,3.4398 0.57425,3.4367 0.57425,3.4315 c 0,-0.0046 -5.4e-4,-0.012 -0.00163,-0.0209 L 0.56354,3.3335 0.54783,3.4533 0.54611,3.4533 0.5314,3.3335 0.52196,3.4183 c -7.3e-4,0.0065 -9.1e-4,0.0089 -9.1e-4,0.0126 0,0.0062 8.2e-4,0.0095 0.00263,0.0105 l 0,0.0049 -0.00508,-3e-4 -0.00763,-3e-4 -0.00172,0 c -0.00236,0 -0.00382,0 -0.00808,6e-4 l 0,-0.0049 C 0.50398,3.4374 0.50534,3.4315 0.50798,3.4106 l 0.02233,-0.1745 0.002,0 0.0147,0.122 0.01526,-0.122" />
                    <path
                       inkscape:connector-curvature="0"
                       id="path3625"
                       style="fill:#ffffff;fill-opacity:1;fill-rule:nonzero;stroke:none"
                       d="m 0.65927,3.4094 c 0.00481,0 0.0069,-0.0037 0.00808,-0.0144 l 0.00155,0 0,0.0513 -0.04177,0 0,-0.0049 C 0.63086,3.4392 0.63176,3.43 0.63176,3.3947 l 0,-0.1014 c 0,-0.0348 -0.001,-0.0446 -0.00463,-0.0467 l 0,-0.0053 0.04149,0 0.00164,0.0532 -0.00145,6e-4 C 0.66763,3.2828 0.66463,3.2782 0.658,3.2782 l -0.00663,0 c -0.00463,0 -0.00553,0.0025 -0.00553,0.0148 l 0,0.0374 0.00944,0 c 0.0059,0 0.00799,-0.003 0.00908,-0.0132 l 0.00145,0 0,0.008 c -9e-5,0.0114 -1.8e-4,0.0206 -1.8e-4,0.0286 0,0.0111 9e-5,0.016 1.8e-4,0.028 l -0.00145,0 C 0.66308,3.371 0.66082,3.3673 0.65501,3.3673 l -0.00917,0 0,0.0421 0.01343,0" />
                    <path
                       inkscape:connector-curvature="0"
                       id="path3627"
                       style="fill:#ffffff;fill-opacity:1;fill-rule:nonzero;stroke:none"
                       d="M 0.74435,3.4463 C 0.74344,3.445 0.74298,3.4444 0.74244,3.4444 c -6.4e-4,0 -0.00163,6e-4 -0.00273,0.0019 -0.00408,0.0034 -0.00717,0.0049 -0.01043,0.0049 -0.01162,0 -0.01961,-0.024 -0.01961,-0.0587 0,-0.0071 4.5e-4,-0.0138 0.00118,-0.0203 C 0.71293,3.3541 0.7162,3.3452 0.72791,3.3258 0.73345,3.3166 0.73545,3.3092 0.73545,3.2976 c 0,-0.0157 -0.00418,-0.0258 -0.01053,-0.0258 -0.00636,0 -0.01126,0.0073 -0.01471,0.0224 L 0.70876,3.2936 0.71021,3.2466 C 0.71666,3.2392 0.7212,3.2361 0.72646,3.2361 c 0.01362,0 0.02233,0.0255 0.02233,0.0645 0,0.0289 -0.00372,0.0461 -0.01389,0.0633 C 0.73109,3.3704 0.72882,3.3744 0.72791,3.3759 0.72465,3.3814 0.72319,3.3876 0.72319,3.3956 c 0,0.0126 0.00318,0.0209 0.00799,0.0209 0.00545,0 0.01008,-0.0077 0.01317,-0.0215 l 0.00163,0 0,0.0513 -0.00163,0" />
                    <path
                       inkscape:connector-curvature="0"
                       id="path3629"
                       style="fill:#ffffff;fill-opacity:1;fill-rule:nonzero;stroke:none"
                       d="m 0.82073,3.4088 c 0.0069,0 0.00944,-0.0034 0.01081,-0.0135 l 0.00145,0 -0.00145,0.051 -0.0434,0 -0.00145,-0.051 0.00145,0 C 0.7895,3.4054 0.79205,3.4088 0.79885,3.4088 l 0.00382,0 0,-0.1158 c 0,-0.0348 -0.001,-0.0446 -0.00472,-0.0467 l 0,-0.005 c 0.00526,7e-4 0.00735,7e-4 0.01162,7e-4 0.00445,0 0.00653,0 0.01207,-7e-4 l 0,0.005 C 0.81783,3.2487 0.81674,3.2589 0.81674,3.293 l 0,0.1158 0.00399,0" />
                  </g>
                </g>
              </g>
            </g>
          </g>
        </g>
      </g>
    </g>
  </g>
</svg>
